<?xml version="1.0" encoding="utf-8"?>
<!-- Generator: Adobe Illustrator 15.0.0, SVG Export Plug-In . SVG Version: 6.00 Build 0)  -->
<!DOCTYPE svg PUBLIC "-//W3C//DTD SVG 1.1//EN" "http://www.w3.org/Graphics/SVG/1.1/DTD/svg11.dtd">
<svg version="1.1" id="Layer_1" xmlns="http://www.w3.org/2000/svg" xmlns:xlink="http://www.w3.org/1999/xlink" x="0px" y="0px"
	 width="264px" height="280px" viewBox="0 0 264 280" enable-background="new 0 0 264 280" xml:space="preserve">
<g>
	<circle fill="#58C0A0" cx="132.148" cy="147.025" r="130.569"/>
	<g>
		<defs>
			<circle id="SVGID_1_" cx="132.148" cy="147.025" r="130.569"/>
		</defs>
		<clipPath id="SVGID_2_">
			<use xlink:href="#SVGID_1_"  overflow="visible"/>
		</clipPath>
		<path clip-path="url(#SVGID_2_)" fill="#F2F2F2" d="M35.615,137.461c0.229-13.54,1.647-19.602,7.098-19.959
			c9.019-0.592,16.559-2.81,16.264-5.915c-0.296-3.104-3.992-8.576-2.07-10.202c1.921-1.626,6.209-1.626,7.54-4.584
			c1.332-2.957,0.295-3.4,2.218-5.914c1.922-2.513,5.471-1.48,5.915-3.106c0.443-1.626-2.071-6.21,2.366-9.61
			c4.436-3.4,13.603,0,13.603,0s-2.07-9.612,5.323-12.568c7.393-2.956,9.463,2.957,9.463,2.957s3.695-3.548,7.984-2.07
			c4.288,1.479-0.147,5.471-0.443,8.281c-0.295,2.808,0.148,5.027,1.922,5.914c1.774,0.886,10.498,1.034,12.271,4.287
			c1.774,3.253,0.74,9.019,2.219,11.385c1.478,2.366,3.696,1.184,5.175,4.879c1.478,3.697,0.147,2.366,1.922,5.027
			c1.775,2.661,5.322,2.07,6.949,4.879c1.626,2.809-3.844,5.174-2.957,7.688c0.886,2.514,1.923,4.288,5.62,6.507
			s15.968,7.688,17.446,10.646s-2.069,41.993-7.689,51.604c-5.617,9.61-29.127,42.286-29.127,42.286s-16.848,49.56-40.062,50.004
			c-11.781,0.225-46.321-7.113-58.242-27.787c-11.568-20.063-0.218-53.674,0.875-56.586c2.217-5.914,14.479-2.89,13.888-8.655
			c-0.591-5.768-4.732-8.282-3.993-11.979c0.739-3.697,7.689-4.879,7.689-9.759c0-4.878-5.324-5.766-6.95-12.272
			C36.206,146.334,35.615,137.461,35.615,137.461z"/>
		<path clip-path="url(#SVGID_2_)" fill="#F4F4F4" d="M182.488,164.223c0,0,2.185,11.488,0.093,16.695
			c-2.041,5.08-34.403,38.145-38.724,40.961c-4.318,2.818-19.154,14.648-24.225,18.218c-5.071,3.567-67.418,14.271-67.418,14.271
			s7.888,19.53,14.085,22.91c6.198,3.381,11.268,4.695,35.117,5.635c23.85,0.938,16.901-0.376,35.869,2.252
			c18.968,2.63,32.301,5.445,32.301,5.445l3.756-0.938c0,0,9.199-9.013,10.705-14.46c1.501-5.445,13.05-24.284,14.646-41.126
			c1.69-17.84,3.004-27.794,1.69-43.568C199.077,174.841,182.488,164.223,182.488,164.223z"/>
		<path clip-path="url(#SVGID_2_)" fill="#FDF6F2" d="M158.02,158.828c0,0-3.044,6.599-6.852,8.883
			c-3.806,2.284-7.36,6.09-8.375,13.451c-1.014,7.359,2.03,18.017,0.255,22.585c-1.776,4.568-6.092,10.406-3.047,22.079
			c3.047,11.675,12.943,28.932,14.975,37.813c2.029,8.881,3.552,13.958,9.389,17.257c5.838,3.299,16.242,6.598,20.304,10.913
			c4.059,4.313,8.119,8.372,17.001,7.865c8.884-0.508,9.138-12.688,16.243-18.778c7.106-6.092,13.704-6.345,16.748-12.436
			c3.046-6.092,8.882-21.826,11.929-27.915c3.045-6.09,1.521-12.436,4.314-18.272c2.791-5.838,4.06-12.943,2.536-15.988
			c-1.522-3.045-6.091-9.39-6.091-9.39s4.062-9.391,2.285-14.973c-1.776-5.584-7.613-13.705-7.613-13.705
			s-26.393-18.524-35.021-20.555C198.372,145.632,183.145,141.826,158.02,158.828z"/>
	</g>
	<polygon fill="#F8F4EB" points="174.694,4.663 182.163,19.797 198.866,22.224 186.778,34.004 189.633,50.638 174.694,42.785 
		159.757,50.638 162.609,34.004 150.524,22.224 167.225,19.797 	"/>
	<polygon fill="#F6E9CD" points="187.861,8.808 185.315,25.492 197.613,37.048 180.961,39.781 173.771,55.05 166.026,40.055 
		149.282,37.935 161.15,25.936 157.992,9.356 173.07,16.935 	"/>
	<polygon fill="#FAF6ED" points="173.327,13.217 178.917,22.275 189.547,22.806 182.66,30.921 185.439,41.194 175.595,37.152 
		166.683,42.971 167.482,32.358 159.194,25.681 169.538,23.164 	"/>
	<path fill="#020202" d="M70.48,54.523l-3.807-2.284L51.065,27.876c0,0-3.236-0.856-4.568-0.761s-2.094,1.332-2.665,3.045
		c-0.571,1.713-1.143,25.504-1.522,29.311c-0.381,3.807-1.904,13.324-2.284,15.988c-0.381,2.665,5.464,9.158,5.464,9.158
		s-6.131,2.771-7.654,4.293s-9.98,27.578-11.761,37.709c-1.325,7.538-9.354,25.263-9.457,38.778
		c-0.128,16.941,8.063,29.752,10.392,35.894c4.188,11.038,58.696,64.882,58.696,64.882s53.436-40.52,59.764-44.918
		c7.804-5.425,34.146-36.05,37.685-39.59c4.095-4.092-7.611-47.583-7.611-55.578c0-7.994,8.088-85.364,5.709-87.934
		s-4.948-2.855-6.472-2.284c-1.521,0.571-7.271,5.076-13.799,11.134c-2.841,2.638-4.463,6.217-5.805,7.423
		c-4.663,4.187-8.945,7.422-13.895,8.85c-1.494,0.431-8.682-1.297-17.986-2.284c-6.371-0.675-13.785-0.351-20.841-1.333
		c-6.841-0.952-12.684-2.919-18.082-3.807C76.554,54.57,70.48,54.523,70.48,54.523z"/>
	<path fill="#F4F3F2" d="M35.615,137.461c0.229-13.54,1.647-19.602,7.098-19.959c9.019-0.592,16.559-2.81,16.264-5.915
		c-0.296-3.104-3.992-8.576-2.07-10.202c1.921-1.626,6.209-1.626,7.54-4.584c1.332-2.957,0.295-3.4,2.218-5.914
		c1.922-2.513,5.471-1.48,5.915-3.106c0.443-1.626-2.071-6.21,2.366-9.61c4.436-3.4,13.603,0,13.603,0s-2.07-9.612,5.323-12.568
		c7.393-2.956,9.463,2.957,9.463,2.957s3.695-3.548,7.984-2.07c4.288,1.479-0.147,5.471-0.443,8.281
		c-0.295,2.808,0.148,5.027,1.922,5.914c1.774,0.886,10.498,1.034,12.271,4.287c1.774,3.253,0.74,9.019,2.219,11.385
		c1.478,2.366,3.696,1.184,5.175,4.879c1.478,3.697,0.147,2.366,1.922,5.027c1.775,2.661,5.322,2.07,6.949,4.879
		c1.626,2.809-3.844,5.174-2.957,7.688c0.886,2.514,1.923,4.288,5.62,6.507s15.968,7.688,17.446,10.646s-2.069,41.993-7.689,51.604
		c-5.617,9.61-29.127,42.286-29.127,42.286s-13.958,37.025-37.172,37.47c-11.782,0.225-39.178-17.401-51.098-38.073
		c-11.568-20.063-10.251-30.854-9.159-33.766c2.217-5.914,14.479-2.89,13.888-8.655c-0.591-5.768-4.732-8.282-3.993-11.979
		c0.739-3.697,7.689-4.879,7.689-9.759c0-4.878-5.324-5.766-6.95-12.272C36.206,146.334,35.615,137.461,35.615,137.461z"/>
	<path fill="#F2F2F2" d="M70.099,56.808c0,0-4.377-0.952-5.9-2.284c-1.523-1.332-7.994-16.559-10.849-19.794
		c-2.854-3.236-5.329-6.281-5.329-6.281s-1.523-0.19-2.284,1.903c-0.762,2.094-0.571,2.284-0.571,5.71s-1.142,17.702-1.142,24.172
		c0,6.472-1.712,15.227-1.712,15.227s-0.191,3.617,3.045,5.71c3.235,2.094,4.758,2.284,4.758,2.284s7.613-4.949,10.659-9.326
		C63.818,69.75,70.099,56.808,70.099,56.808z"/>
	<path fill="#F2F2F2" d="M142.427,67.085c0,0,8.374-2.664,13.322-7.422c4.948-4.759,6.28-6.471,9.327-9.517
		c3.044-3.045,11.989-9.517,11.989-9.517l3.047,0.761c0,0-3.236,60.526-5.331,62.239c-2.092,1.713-3.426,5.71-7.042,7.233
		c-3.617,1.522-4.187,2.855-5.328,0.762c-1.143-2.094-0.382-0.953-0.952-4.758c-0.572-3.808-4.188-8.375-8.185-15.418
		c-3.874-6.824-4.948-7.042-7.042-12.942C144.138,72.605,142.427,67.085,142.427,67.085z"/>
	<path fill="#ED1F24" d="M45.474,84.703c0,0,28.462-45.078,33.998-51.496s46.807-21.826,57.846-22.587
		c7.573-0.522,29.074,16.043,29.074,16.043s-0.798,1.115-1.408,2.389c-0.526,1.099-0.954,3.319-0.954,3.319l-11.845-2.178
		l6.343,1.776l17.257,89.583c0,0-44.761-32.109-72.93-38.2S45.474,84.703,45.474,84.703z"/>
	<path fill="#FDF5EB" d="M37.698,84.089c0.809,4.854,12.081,1.315,18.301,1.592c7.282,0.324,30.151-3.334,48.273,2.652
		c18.122,5.986,51.187,21.526,57.821,28.645c6.634,7.12,14.433,12.164,17.506,7.957c3.075-4.207,14.065-13.378-2.917-25.463
		c-16.828-11.973-43.486-26.49-67.901-31.563c-24.917-5.178-61.93-5.308-68.696,1.061C37.334,71.56,36.889,79.236,37.698,84.089z"/>
	<path fill="#F9EDE1" d="M37.698,84.089c0.809,4.854,12.081,1.315,18.301,1.592c7.282,0.324,30.151-3.334,48.273,2.652
		c18.122,5.986,51.187,21.526,57.821,28.645c6.634,7.12,14.433,12.164,17.506,7.957c3.075-4.207,12.327-11.828-4.657-23.912
		c-16.826-11.973-42.81-21.222-67.225-26.295c-24.917-5.178-57.729-5.625-64.497,0.744C40.469,78.062,36.889,79.236,37.698,84.089z"
		/>
	<path d="M82.275,107.15c0,0,0.822-12.528-9.042-10.622s-8.769,9.533-8.769,9.533s1.37,7.352,7.124,7.352
		S82.275,107.15,82.275,107.15z"/>
	<path fill="#8AC1BF" d="M81.252,106.888c0,0,0.728-11.09-8.004-9.402c-8.733,1.688-7.762,8.438-7.762,8.438
		s1.213,6.509,6.306,6.509C76.887,112.433,81.252,106.888,81.252,106.888z"/>
	<path fill="#050606" d="M61.079,145.436c1.257,0.125,0.147,0.739,2.07,5.766c1.922,5.027,4.732,10.942,6.654,11.091
		c1.921,0.147,14.933-0.298,15.229-1.035c0.295-0.74,0.591-1.479,0.591-1.479s0.148,1.183,0.739,1.774s5.174,1.184,7.688,2.07
		c2.514,0.888,7.245,5.471,12.271,3.105c5.027-2.366,7.985-4.732,10.202-8.428c2.218-3.696,3.253-10.203,6.21-9.167
		c2.958,1.033-2.217,6.652-4.731,10.94c-2.514,4.288-6.801,9.906-10.794,12.864c-3.992,2.956-6.357,4.436-6.357,4.436
		s0.443,2.81,0,4.731c-0.444,1.921-3.253,8.279-15.673,7.688s-13.603-6.801-13.603-6.801s-0.739-4.14,0.592-7.838
		c1.33-3.695-0.297-4.434-1.627-6.8s-1.774-3.105-1.921-4.731c-0.149-1.627-2.958-4.73-5.471-10.498
		C60.635,147.358,59.601,145.287,61.079,145.436z"/>
	<path fill="#121212" d="M87.25,129.615c2.661,0.147,5.323-1.773,5.323-1.773s4.731,1.773,5.914,4.435
		c1.184,2.661,2.958,3.845,1.923,9.021c-1.035,5.175-3.105,7.688-6.506,9.905c-3.4,2.219-3.697,0.739-5.619,1.923
		c-1.922,1.183-3.401,6.21-3.401,6.21s-0.739-6.063-3.696-7.098c-2.958-1.035-6.653-1.479-7.985-7.245
		c-1.331-5.766-1.035-6.21-0.295-9.611c0.74-3.4,9.907-8.427,9.907-8.427S84.588,129.468,87.25,129.615z"/>
	<path d="M108.324,112.303c0,0,5.258-12.272,14.608-10.519c9.35,1.753,8.473,11.688,8.473,11.688s-1.164,5.551-9.35,5.551
		C111.539,119.024,108.324,112.303,108.324,112.303z"/>
	<path fill="#8AC1BF" d="M110.271,111.969c0,0,4.373-10.204,12.146-8.746c7.773,1.458,7.045,9.717,7.045,9.717
		s-0.967,4.616-7.773,4.616C112.944,117.557,110.271,111.969,110.271,111.969z"/>
	<path fill="#FFFFFF" d="M74.602,175.541c0,0-2.333-5.22-1.333-8.883c0.999-3.665,2.886,4.774,2.886,4.774s0.223,2.553-0.221,3.33
		C75.49,175.541,74.602,175.541,74.602,175.541z"/>
	<path fill="#FFFFFF" d="M95.144,178.871c0,0,1.555-1.443,2.555-4.552s1.11-5.553,0.333-5.33c-0.777,0.222-1.555,0.889-2.443,3.11
		c-0.889,2.22-1.333,4.107-1.333,4.662C94.256,177.318,95.144,178.871,95.144,178.871z"/>
	<path fill="#FFFFFF" d="M76.268,179.205c0,0-1.444-2.443-0.888-3.442c0.555-1,2.109,0.777,2.553,0.999
		c0.445,0.224-0.333,1.667-0.666,1.999C76.934,179.095,76.268,179.205,76.268,179.205z"/>
	<path fill="#FFFFFF" d="M77.932,178.538c0,0,0.112,1.556,0.889,2.001c0.778,0.443,1.556,0.776,1.556,0.776s0.555-0.223,0.888-0.889
		s0.333-1.666,0.333-1.666s-0.566-0.551-1.499-0.726C79.196,177.868,77.932,178.538,77.932,178.538z"/>
	<path fill="#FFFFFF" d="M81.621,179.798c0,0-0.631,1.871,0.848,1.893c1.479,0.022,1.371-0.804,1.458-1.305
		c0.087-0.501-0.435-0.849-1.153-0.827C82.056,179.582,81.838,179.625,81.621,179.798z"/>
	<path fill="#FFFFFF" d="M84.884,181.822c0.535,0.514,2.001,0.066,2.089-0.828c0.087-0.892-0.392-1.044-1.175-1.064
		c-0.783-0.022-1.5,0.086-1.5,0.456C84.297,180.755,84.297,181.257,84.884,181.822z"/>
	<path fill="#FFFFFF" d="M88.713,181.866c1.015,0.544,2.131-0.61,2.197-1.981c0.065-1.369-0.305-1.195-1.588-1
		c-1.283,0.194-1.936,0.283-1.827,1.066C87.603,180.732,87.821,181.386,88.713,181.866z"/>
	<path fill="#FFFFFF" d="M92.521,177.623c0.653-0.326,1.219-0.392,1.48-0.022c0.454,0.645,0.739,2.59,0.391,2.894
		c-0.348,0.305-1.392,1.088-2.284-0.043c-0.893-1.131-1.352-1.376-0.805-1.958C91.629,178.145,92.096,177.836,92.521,177.623z"/>
	<path fill="#F15D5E" d="M84.186,179.314c4.558,0.836,9.296-2.475,10.83-3.923c1.535-1.449,0.256-0.853,1.961-1.194
		c1.706-0.341,1.194,0.427,2.047,0.342c0.853-0.086,1.024-0.598,2.217-1.108c1.194-0.512,2.474-1.194,3.412-3.156
		c0.937-1.961-0.063-2.973-0.063-2.973s-1.794,0.399-3.953-0.372c-1.549-0.554-3.435-1.834-6.323-3.191
		c-1.982-0.929-4.743-1.146-6.107-1.573c-1.892-0.591-1.992-0.75-2.151-1.125c-0.159-0.377-0.433-1.263-0.433-1.263l-0.591,1.479
		c0,0-0.116,0.389-4.187,0.68c-1.054,0.072-5.862,0.315-5.862,0.315s-0.27,1.445-0.436,2.992c-0.256,2.387-0.112,9.131,3.384,11.518
		C81.429,179.149,79.068,178.375,84.186,179.314z"/>
	<ellipse fill="#020202" cx="121.145" cy="109.707" rx="6.98" ry="7.377"/>
	<ellipse fill="#FFFFFF" cx="122.97" cy="108.305" rx="1.243" ry="2.063"/>
	<ellipse fill="#020202" cx="74.608" cy="103.662" rx="6.712" ry="6.854"/>
	<ellipse fill="#FFFFFF" cx="78.769" cy="102.906" rx="1.953" ry="3.267"/>
	<path d="M94.145,143.282c-0.377,0.994-1.08,0.951-1.016,1.713c0.063,0.762,0.952,1.016,1.713,1.016
		c0.762,0,2.918-0.636,2.918-0.636s-0.698,1.205-3.236,1.27c-2.538,0.064-3.934-1.205-4.441-1.714
		c-0.508-0.506-1.142-0.759-1.333-1.648c-0.19-0.89,1.015-2.981,1.84-3.299C91.416,139.666,95.032,140.935,94.145,143.282z"/>
	<path d="M81.519,139.983c0.952,1.078,1.015,3.044,0.571,3.934c-0.444,0.889-2.157,1.522-3.362,1.27
		c-1.206-0.256-4.441-2.158-4.441-2.158s2.537,0.889,2.98-0.063c0.444-0.952-0.571-2.221-0.126-3.172
		c0.445-0.952,1.459-1.142,2.284-1.142C80.25,138.651,80.567,138.905,81.519,139.983z"/>
	<path fill="#BA792A" d="M210.68,130.596c-0.919,0.476-5.521,0.572-10.469,0.572c-4.949,0-5.71,0.76-8.756,0.952
		c-3.045,0.189-3.242,0.667-3.242,0.667s-1.258-1.465-3.561-7.118c-2.303-5.653-2.511-7.956-3.141-12.772
		c-0.628-4.814-1.674-3.349-3.35-7.118c-1.675-3.768-1.465-3.35-3.142-3.768c-1.674-0.42-3.557,3.139-4.604,6.28
		c-1.047,3.141-4.396,11.306-4.187,12.562c0.209,1.256-1.048,13.399-1.465,16.54c-0.42,3.142-1.048,2.932-4.189,6.909
		c-3.14,3.978-1.675,3.77-1.465,8.794c0.209,5.023,0.37,3.387-0.962,6.622c-1.333,3.235,0,2.855-0.191,4.759
		c-0.19,1.902-1.522,1.712-6.853,9.706c-5.329,7.994-3.045,23.982,1.143,28.549c4.188,4.568,16.75-3.233,21.316-2.664
		c4.57,0.572,14.295,11.561,14.847,11.8c14.846,6.474,41.112-3.425,43.587-6.278c2.474-2.857,5.709-7.424,9.896-10.849
		c4.188-3.427,2.665-3.618,3.046-8.758c0.38-5.138-2.665-11.229-2.854-13.514c-0.191-2.284,0.189-4.187,0.57-6.851
		c0.38-2.665-0.952-4.758-1.142-8.376c-0.191-3.615,2.701-15.058-0.153-18.674c-2.854-3.616-3.427-3.426-3.807-6.28
		c-0.38-2.856-1.523-13.895-1.332-15.038c0.189-1.141-2.856-8.564-3.807-11.42c-0.952-2.854-2.666-6.091-4.188-5.71
		c-1.521,0.381-1.332,0-2.855,3.426c-1.522,3.427-2.953,2.084-3.524,6.463c-0.571,4.377-0.919,5.771-3.361,10.753
		c-2.476,5.043-2.349,4.314-3.712,6.281C213.518,128.851,211.599,130.121,210.68,130.596z"/>
	<path fill="#A58C7A" d="M217.809,127.292c0,0,4.107-9.467,4.286-11.254c0.179-1.786,0.535-5.984,1.429-7.949
		c0.893-1.965,3.219-6.588,3.843-6.912c0.623-0.322,1.695-1.037,2.856,1.642c1.159,2.679,4.555,12.236,4.555,14.559
		c0,2.321,0.446,12.861,1.34,15.54c0.894,2.68,1.518,7.235,1.518,7.235s-1.964-0.536-3.126-1.698
		c-1.161-1.161-5.179-10.45-7.592-11.968C224.505,124.97,217.809,127.292,217.809,127.292z"/>
	<path fill="#A07D65" d="M184.891,130.902c0,0-1.965-8.94-2.554-10.218c-0.589-1.277-2.26-10.021-2.26-10.021
		s-2.924-8.291-5.601-7.664c-3.179,0.746-5.6,11.102-5.5,14.934c0.098,3.832-1.968,18.273-2.261,21.417
		c-0.295,3.143,0,5.207,0,5.207s5.109-6.188,5.894-7.859c0.786-1.671,2.557-6.287,6.387-6.779
		C182.827,129.428,184.891,130.902,184.891,130.902z"/>
	<path fill="#543930" d="M167.059,184.334c0,0,2.594,12.156,5.673,16.533c3.08,4.377,7.262,7.666,7.262,7.666
		s1.977,3.679,4.409,6.273c2.43,2.594,20.745,3.566,24.312,1.134c3.566-2.432,4.052-3.89,9.076-9.238
		c5.024-5.35,11.022-18.478,11.022-18.478l-30.958-5.835L167.059,184.334z"/>
	<path fill="#020202" d="M178.846,182.155c0,0,0.257-2.805-1.784-3.186c-2.039-0.384-3.44,0-4.97-0.766
		c-1.529-0.765-4.841-2.295-6.627-0.129c-1.783,2.167-3.184,3.825-2.294,6.501c0.894,2.674,2.165,10.448,7.392,16.183
		c5.224,5.735,9.431,7.774,9.431,7.774s-10.195-13.764-10.831-18.606c-0.639-4.842-0.766-5.86-0.766-5.86s2.167,8.792,5.225,12.742
		c3.059,3.95,10.193,10.322,10.193,10.96c0,0.637,4.971,6.88,14.019,7.008c9.047,0.128,10.703-3.44,15.546-8.157
		c4.843-4.713,8.029-8.919,8.665-12.104c0.639-3.185,2.423-5.733,2.423-5.733s-2.805,9.557-4.079,11.085
		c-1.274,1.529-6.242,5.99-4.97,7.519c1.274,1.529,4.333-1.655,6.115-3.949c1.785-2.295,3.57-7.008,5.481-8.538
		c1.911-1.528,3.696-2.166,3.696-2.166s-0.765-4.716-1.275-8.283c-0.51-3.567-0.891-3.059-6.499-4.46
		c-5.607-1.402-6.5-0.893-6.883-1.529c-0.381-0.637-1.272-3.568-2.546-2.932c-1.274,0.638-1.149,1.529-0.129,3.823
		c1.18,2.655,0.127,8.794-0.637,9.939c-0.765,1.147-13.89,4.588-18.988,2.423C188.658,189.545,178.846,182.155,178.846,182.155z"/>
	<path d="M177.528,153.938c5.72,0.277,5.125,6.875,5.125,6.875s-3.514,2.839-7.32,2.392c-3.808-0.447-5.271-4.334-5.271-4.334
		S171.378,153.639,177.528,153.938z"/>
	<path fill="#F48789" d="M184.451,205.856c0,0,0.383,8.155,2.167,12.869c1.784,4.716,2.295,7.009,5.862,8.537
		c3.569,1.531,2.804,0.511,6.499,1.021c3.694,0.511,7.773-1.53,9.175-4.076c1.402-2.549,2.038-13.253,1.656-15.038
		c-0.382-1.784-0.126-8.537-1.656-9.557c-1.528-1.019-11.978-2.167-11.978-2.167l-8.92-0.765
		C187.257,196.681,184.579,199.866,184.451,205.856z"/>
	<path fill="#020202" d="M186.001,160.017c-0.093-0.477-0.188-2.197-0.188-2.197s-0.185,1.576-0.89,1.576
		c-0.7,0-0.046-1.338-0.748-1.528s-1.03,0.096-1.03,0.096s-0.653-2.533-2.433-3.679c-1.777-1.147-3.465-2.677-4.165-2.58
		c-0.702,0.093-0.47,0.811-0.47,0.811s-2.198,0.239-2.902,0.717c-0.702,0.478-3.367,4.825-5.054,5.257
		c-1.686,0.43-2.574,1.147-2.574,1.147s1.262,0.812,1.825,1.338c0.563,0.525,2.576,0.764,3.369,2.245
		c0.797,1.481,0.141-0.955-1.59-1.863c-1.732-0.909-0.142-0.574,1.357-2.675c1.496-2.104,1.964-3.92,5.568-3.968
		c3.604-0.047,6.855,4.084,7.349,5.402c0.164,0.435-0.542,1.573-0.542,1.573l-1.003,0.67c0,0,1.732,0.097,2.154-0.286
		c0.421-0.383,0.937-0.908,0.937-0.908S186.095,160.495,186.001,160.017z"/>
	<path fill="#FFFFFF" d="M181.649,198.338c0,0-0.511,2.549,2.039,4.46c2.548,1.911,3.568,1.785,3.822,1.275
		c0.256-0.51-1.02-3.951-0.384-5.479C187.767,197.064,181.649,198.338,181.649,198.338z"/>
	<path fill="#FFFFFF" d="M206.88,199.102c0,0,0.128,3.187-0.509,4.462c-0.638,1.273,0.381,1.528,0.891,1.146
		c0.51-0.382,2.295-1.021,3.44-3.439c1.146-2.422,1.275-4.589,1.275-4.589L206.88,199.102z"/>
	<path fill="#F6E9E3" d="M199.618,139.595c1.018,0,0.764,22.044,1.146,24.083c0.382,2.04,2.598,3.941,3.871,4.834
		c1.274,0.892,6.157,5.643,7.723,7.909c1.621,2.345,2.041,4.843,3.442,7.52c1.402,2.675,3.059,8.027,1.912,10.83
		c-1.148,2.805-5.862,6.501-9.048,6.756c-3.186,0.254-8.411-1.529-11.343-1.911c-2.93-0.384-3.693,1.781-13.124-0.257
		c-9.43-2.039-8.412-7.772-8.539-10.067c-0.126-2.293,2.592-7.638,4.461-10.066c2.55-3.313,7.104-7.23,10.703-10.832
		c4.206-4.204,4.717-2.675,6.117-4.842c1.402-2.167,1.148-24.212,2.678-24.339"/>
	<path fill="#FFFFFF" d="M183.306,212.101c-0.042-0.779,0.331-4.395,0.585-4.904c0.255-0.511,1.199-1.65,1.844,2.536
		c0.293,1.9,0.428,3.044-0.008,3.389C185.252,213.492,183.348,212.878,183.306,212.101z"/>
	<path fill="#FFFFFF" d="M209.685,211.591c0,0,0.382-2.677-0.256-4.078c-0.637-1.401,0.764-1.4,1.402-0.51
		c0.636,0.892,1.402,1.784,1.402,2.932c0,1.146-0.638,1.782-1.275,1.911C210.321,211.974,210.066,212.356,209.685,211.591z"/>
	<path fill="#FFFFFF" d="M182.396,158.488l-0.374,2.391c0,0-2.295,2.007-4.587,2.007c-2.294,0-4.211-0.575-4.634-1.482
		c-0.42-0.908-0.234-3.918-0.234-3.918l-0.795,1.434v2.722c0,0,1.216,1.531,2.573,2.296c1.358,0.765,2.716,0.765,4.167,0.288
		c1.45-0.479,3.041-2.105,3.041-2.105s0.891,0.433,1.357-0.144c0.469-0.572,0.234-0.428,0.234-0.428s0.468,0.143,0.609-0.24
		c0.141-0.382-0.092-1.624-0.516-1.959C182.817,159.015,182.396,158.488,182.396,158.488z"/>
	<path fill="#FFFFFF" d="M177.038,155.388c-0.464,0.095-0.68,0.234-0.819,0.711c-0.141,0.479-0.046,1.387-0.046,1.387
		s1.123,0.05,1.637-0.477s0.514-0.881,0.216-1.239C177.823,155.529,177.502,155.292,177.038,155.388z"/>
	<path fill="#020202" d="M186.05,169.862c0,0,3.135-1.005,3.37-3.872c0.233-2.867,0.278-3.966,1.73-5.973
		c1.451-2.007,1.732-2.198,1.592-3.585c-0.141-1.385-0.936-2.771-0.89-3.965c0.048-1.195-0.141-2.39-0.141-2.39l-2.433,0.048
		l-0.562,1.291c0,0-1.404-2.008-2.153-3.585c-0.75-1.577-2.901-3.01-2.901-3.01l-4.073,3.822c0,0-0.14,0.097,2.621,1.721
		c2.763,1.624,3.979,1.959,4.446,5.112c0.468,3.154,0.984,5.639,0.984,5.639s1.076,3.633,0.139,6.071
		C187.065,169.048,186.05,169.862,186.05,169.862z"/>
	<path fill="#020202" d="M208.488,160.602c-1.238,0.688-2.614,0.367-2.614,0.367s1.283-0.229,1.376-1.008
		c0.092-0.781-2.661-1.974-2.477-2.571c0.184-0.596,1.147-1.604,1.834-1.925c0.688-0.321,7.613-8.348,7.66-9.358
		c0.047-1.009,2.753,1.146,2.753,1.146l-1.192,2.662l2.063,1.33c0,0-1.33-1.423-4.038,0.915c-2.705,2.342-2.75,2.571-3.622,4.588
		C209.207,159.12,209.728,159.915,208.488,160.602z"/>
	<path fill="#020202" d="M214.589,155.464c0,0-2.064,4.037-3.578,5.229c-1.515,1.193-3.669,2.522-3.669,2.522
		s0.596,0.734,0.824,1.973c0.229,1.238,1.012,3.762,1.698,4.679c0.687,0.918,1.284,1.009,1.972,1.422
		c0.688,0.413,1.834,0.505,1.834,0.505s-2.523-1.377-2.477-3.073c0.047-1.697,1.057-1.147,1.284-2.567
		c0.229-1.423,0-3.121,1.102-3.532C214.68,162.208,214.589,155.464,214.589,155.464z"/>
	<path fill="#020202" d="M195.262,177.418c0,0-4.854,2.761-6.186,4.474c-1.332,1.712-2.76,1.808-2.379,5.52
		c0.38,3.711,3.236,7.422,6.281,9.136c3.045,1.713,8.564,1.618,11.61-1.333c3.045-2.95,4.005-6.946,4.187-9.801
		c0.286-4.474-3.806-3.618-6.852-4.759C199.592,179.778,195.262,177.418,195.262,177.418z"/>
	<path fill="#FFFFFF" d="M195.071,189.028c0,0-0.761,3.332-3.14,2.76c-2.379-0.571-3.33-2.854-3.33-2.854s-0.286,1.617,0.569,2.38
		c0.857,0.76,1.429,2.188,3.236,1.521S195.071,189.028,195.071,189.028z"/>
	<path fill="#875A29" d="M188.705,133.688c0,0-4.697-8.647-5.66-13.025c-0.96-4.376-1.387-9.502-2.028-10.462
		c-0.641-0.961-5.122-7.26-5.122-7.26s3.308,4.27,4.162,8.753c0.854,4.484,0.319,6.193,1.173,8.861
		c0.855,2.67,1.389,1.389,1.495,3.524c0.108,2.134-1.814,5.231,0.32,6.939c2.137,1.708,2.991,1.922,2.991,1.922L188.705,133.688z"/>
	<path fill="#603D17" d="M174.825,106.355c0,0,2.029,0.854,2.455,2.67c0.427,1.814,0.214,13.131,0,13.559
		c-0.215,0.427-0.106-9.288-0.853-11.744C175.679,108.385,174.825,106.355,174.825,106.355z"/>
	<path fill="#916633" d="M179.736,123.118c0,0-3.842,5.551-5.337,8.327c-1.497,2.776-2.777,5.125-3.846,7.26
		c-1.066,2.135-2.773,4.803-3.628,5.446c-0.855,0.64-2.244,1.173-2.777,2.134c-0.534,0.961,0.108,2.136-1.709,3.417
		c-1.814,1.28-2.241,1.922-2.241,1.922s4.059-2.776,4.378-3.63c0.318-0.854-0.854-1.175,0.641-2.135
		c1.495-0.962,3.417-0.854,4.483-3.631c1.067-2.776,5.23-8.221,6.404-9.288c1.176-1.068,0.855-1.922,2.991-2.136
		c2.134-0.213,3.949,1.602,5.231,1.922c1.281,0.321,2.243,0.107,2.243,0.107s-2.992-4.484-6.514-4.271
		c-3.522,0.213-3.522,0.213-3.522,0.213L179.736,123.118z"/>
	<path fill="#875A29" d="M215.718,129.13c0,0,4.271-7.861,5.145-11.84c0.874-3.979,1.262-8.639,1.845-9.512
		c0.582-0.873,4.659-6.6,4.659-6.6s-3.009,3.882-3.786,7.959c-0.776,4.077-0.29,5.63-1.068,8.056
		c-0.775,2.426-1.26,1.262-1.358,3.203c-0.097,1.941,1.65,4.755-0.291,6.309c-1.941,1.553-2.717,1.747-2.717,1.747L215.718,129.13z"
		/>
	<path fill="#916633" d="M226.65,122.736c0,0,1.766,0.781,3.126,3.305c1.358,2.523,2.602,4.668,3.572,6.609
		c0.97,1.941,1.635,3.883,2.412,4.466c0.776,0.582,1.797,2.595,2.281,3.468c0.486,0.874-0.098,1.94,1.553,3.105
		c1.649,1.166,2.038,1.747,2.038,1.747s-3.688-2.523-3.979-3.3s-0.624-1.915-1.982-2.789c-1.357-0.873-1.705,0.07-2.676-2.453
		c-0.971-2.523-3.759-4.793-4.825-5.763c-1.069-0.971-2.437-2.843-4.376-3.037c-1.942-0.194-2.93-0.128-4.096,0.163
		c-1.165,0.292-2.039,0.097-2.039,0.097s2.72-4.077,5.921-3.882c3.202,0.194,3.202,0.194,3.202,0.194L226.65,122.736z"/>
	<path fill="#3D2E24" d="M227.704,141.684c-1.614-0.629,0.178-0.791-1.668-3.687c-1.739-2.727-2.742-1.532-3.053-2.972
		c-0.38-1.773,6.589-3.688,8.309-7.012c1.49-2.884,0.709-6.323,0.081-9.038c-0.415-1.797-0.958-5.126,2.272-5.943
		c2.902-0.732,4.411,2.064,4.733,3.836c0.316,1.727,1.132,6.36,1.132,6.36s0.806-0.331,1.529-0.695c1.988-1,2.076-2.399,1.178-7.422
		c-0.559-3.125-2.305-8.754,1.077-10.03c4.854-1.83,5.85,2.249,6.96,7.403c0.688,3.185,0.986,5.13,0.986,5.13
		s0.905-0.342,2.453-0.883c1.913-0.67,1.58-5.591,0.593-9.722c-0.358-1.503-2.597-7.049,1.351-8.071
		c4.991-1.292,6.028,4.622,6.744,7.84c1.884,8.474,2.852,13.741-1.273,15.392c-3.643,1.459-4.927,1.608-10.146,4.258
		C237.72,133.153,230.563,142.798,227.704,141.684z"/>
	<path fill="#3D2E24" d="M176.497,143.466c1.615-0.63-0.18-0.792,1.667-3.687c1.739-2.727,2.742-1.532,3.052-2.972
		c0.381-1.773-6.59-3.688-8.308-7.013c-1.492-2.883-0.709-6.322-0.081-9.038c0.414-1.796,0.957-5.125-2.273-5.942
		c-2.902-0.733-4.411,2.064-4.733,3.836c-0.316,1.727-1.131,6.359-1.131,6.359s-0.806-0.331-1.529-0.694
		c-1.989-1-2.076-2.401-1.178-7.422c0.559-3.125,2.303-8.754-1.076-10.03c-4.855-1.83-5.851,2.248-6.961,7.404
		c-0.687,3.185-0.986,5.13-0.986,5.13s-0.906-0.342-2.453-0.884c-1.912-0.671-1.579-5.592-0.594-9.722
		c0.36-1.503,2.599-7.05-1.35-8.071c-4.991-1.292-6.028,4.622-6.744,7.841c-1.884,8.474-2.852,13.74,1.274,15.392
		c3.641,1.459,4.925,1.607,10.146,4.258C166.479,134.934,173.638,144.578,176.497,143.466z"/>
	<path d="M218.663,155.121c-5.721,0.277-5.125,6.875-5.125,6.875s3.515,2.842,7.321,2.393c3.806-0.449,5.271-4.335,5.271-4.335
		S224.813,154.822,218.663,155.121z"/>
	<path fill="#020202" d="M210.189,161.203c0.095-0.479,0.188-2.199,0.188-2.199s0.187,1.577,0.89,1.577
		c0.702,0,0.046-1.339,0.747-1.528c0.703-0.192,1.03,0.094,1.03,0.094s0.655-2.532,2.434-3.68c1.778-1.146,3.464-2.676,4.167-2.58
		c0.702,0.096,0.468,0.813,0.468,0.813s2.199,0.238,2.902,0.716c0.702,0.479,3.369,4.826,5.056,5.256
		c1.683,0.431,2.573,1.147,2.573,1.147s-1.262,0.813-1.824,1.338c-0.563,0.526-2.576,0.765-3.371,2.246
		c-0.796,1.481-0.14-0.956,1.591-1.863c1.731-0.908,0.141-0.575-1.356-2.676c-1.498-2.104-1.966-3.919-5.57-3.968
		c-3.604-0.046-6.854,4.085-7.349,5.402c-0.163,0.435,0.544,1.575,0.544,1.575l1.002,0.67c0,0-1.732,0.095-2.154-0.287
		c-0.422-0.383-0.937-0.908-0.937-0.908S210.097,161.68,210.189,161.203z"/>
	<path fill="#FFFFFF" d="M213.794,159.673l0.375,2.39c0,0,2.295,2.007,4.587,2.007c2.294,0,4.212-0.574,4.634-1.48
		c0.422-0.909,0.234-3.919,0.234-3.919l0.796,1.433v2.725c0,0-1.218,1.529-2.575,2.293c-1.357,0.765-2.716,0.766-4.167,0.287
		c-1.449-0.478-3.04-2.104-3.04-2.104s-0.89,0.431-1.357-0.143c-0.468-0.572-0.236-0.43-0.236-0.43s-0.466,0.145-0.606-0.239
		c-0.141-0.382,0.091-1.624,0.515-1.959C213.373,160.199,213.794,159.673,213.794,159.673z"/>
	<path fill="#FFFFFF" d="M219.154,156.571c0.463,0.097,0.68,0.235,0.818,0.713c0.14,0.477,0.047,1.386,0.047,1.386
		s-1.124,0.048-1.638-0.478c-0.515-0.526-0.515-0.88-0.215-1.236C218.369,156.713,218.69,156.476,219.154,156.571z"/>
</g>
</svg>
